<svg viewBox="0 0 156 76" fill="none" xmlns="http://www.w3.org/2000/svg"><g clip-path="url(#clip0_1071_44213)"><path d="M14.8049 56.5214C14.5855 56.9476 14.2933 57.3321 13.9416 57.6576C13.6311 57.9303 13.2373 58.1272 12.7678 58.256C12.2983 58.3847 11.7152 58.4605 11.026 58.4832C9.0346 58.5318 7.04223 58.5268 5.05108 58.4681C4.1676 58.4574 3.29217 58.2986 2.46117 57.9984C1.78224 57.7495 1.20632 57.2801 0.825444 56.6653C0.403653 55.859 0.209894 54.9529 0.265056 54.0445C0.265056 52.9538 0.371075 52.0827 0.590687 51.4389C0.817871 50.795 1.21923 50.3103 1.80234 49.977C2.54714 49.5997 3.36185 49.3805 4.19535 49.3331C5.19496 49.2422 6.48234 49.1892 8.04234 49.1892C9.17826 49.1892 10.1097 49.2044 10.8443 49.2271C11.5788 49.2422 12.1922 49.318 12.6845 49.4316C13.1197 49.5256 13.5317 49.7059 13.8961 49.9618C14.2142 50.1966 14.5171 50.5451 14.8049 50.992V49.7649C14.8049 48.6287 14.7291 47.7425 14.5777 47.1138C14.4582 46.5385 14.1184 46.0329 13.6311 45.7049C13.0213 45.3534 12.3351 45.1558 11.6319 45.1293C10.7761 45.0535 9.6402 45.0156 8.23166 45.0156C7.15632 45.0156 6.28544 45.0384 5.61904 45.0914C4.95263 45.152 4.43011 45.2732 4.05904 45.4701C3.6804 45.6595 3.42292 45.9246 3.27904 46.2806C3.13515 46.6366 3.05185 47.1138 3.05185 47.7198H0.855735C0.855735 46.7502 0.969327 45.9625 1.18137 45.3489C1.39341 44.7354 1.77205 44.2582 2.31729 43.9097C3.00087 43.5092 3.76293 43.2611 4.55127 43.1826C5.48273 43.0538 6.67166 42.9932 8.11807 42.9932C9.87496 42.9932 11.3214 43.0538 12.4724 43.1826C13.4235 43.2492 14.3474 43.5288 15.1759 44.0006C15.8286 44.4169 16.3139 45.0498 16.5466 45.7882C16.8117 46.5608 16.9404 47.5834 16.9404 48.8711V58.2863H14.7973V56.5214H14.8049ZM2.40059 54.0445C2.40059 54.7111 2.51418 55.211 2.73379 55.5594C2.96098 55.9003 3.29418 56.1502 3.74855 56.3169C4.20292 56.4684 4.77845 56.5593 5.48273 56.582C7.3431 56.6289 9.20453 56.6137 11.0639 56.5366C11.9196 56.4835 12.6239 56.3548 13.1843 56.1654C13.7447 55.976 14.1536 55.6806 14.4186 55.2943C14.6837 54.908 14.8049 54.4005 14.8049 53.7567C14.8049 53.1128 14.6837 52.6129 14.4262 52.2418C14.15 51.8592 13.7565 51.5773 13.3054 51.4389C12.6943 51.2497 12.0595 51.1477 11.4198 51.1359C9.46892 51.0589 7.51549 51.0741 5.56603 51.1813C4.73302 51.2495 4.07418 51.3858 3.5971 51.5828C3.38601 51.6623 3.19327 51.7839 3.03056 51.9401C2.86784 52.0964 2.73854 52.284 2.65049 52.4917C2.48389 52.8856 2.40059 53.4007 2.40059 54.0445ZM22.4155 36.6609H24.4602V58.2863H22.4155V36.6609ZM29.8975 36.6609H31.9497V58.2863H29.9051V36.6609H29.8975ZM39.4695 46.3033C39.6305 45.7271 39.8864 45.1818 40.2268 44.6899C40.5297 44.2658 40.9311 43.9249 41.4385 43.6674C42.0106 43.3865 42.6243 43.1998 43.2559 43.1144C43.9678 43.0084 44.8386 42.9629 45.861 42.9629C47.5573 42.9629 48.981 43.0993 50.1396 43.372C51.2194 43.6024 52.1764 44.2226 52.828 45.1141C53.2748 45.7125 53.5322 46.3412 53.608 47.0077C53.6837 47.6743 53.7216 48.4015 53.7216 49.1892V58.2863H51.6769V49.4165C51.6936 48.6853 51.6043 47.9557 51.4119 47.2501C51.2555 46.7095 50.9321 46.2323 50.488 45.8867C49.9567 45.5066 49.3406 45.2621 48.6932 45.1747C47.9359 45.0459 46.9893 44.9853 45.8307 44.9853C44.6948 44.9853 43.7254 45.0535 42.9227 45.1899C42.218 45.2917 41.5451 45.5506 40.9538 45.9473C40.4419 46.3174 40.0517 46.8316 39.833 47.4243C39.5695 48.1783 39.4463 48.9741 39.4695 49.7725V58.2863H37.4173V43.1826H39.4695V46.3033ZM73.3049 56.5214C73.0832 56.9481 72.7885 57.3327 72.434 57.6576C72.1311 57.9303 71.7373 58.1272 71.2602 58.256C70.7907 58.3847 70.2076 58.4605 69.526 58.4832C67.5346 58.5318 65.5422 58.5268 63.5511 58.4681C62.6651 58.4574 61.7872 58.2986 60.9536 57.9984C60.2747 57.7495 59.6988 57.2801 59.3179 56.6653C58.8961 55.859 58.7023 54.9529 58.7575 54.0445C58.7575 52.9538 58.8635 52.0827 59.0907 51.4389C59.2937 50.815 59.727 50.2921 60.3023 49.977C61.0448 49.6007 61.8569 49.3816 62.6878 49.3331C63.6874 49.2422 64.9748 49.1892 66.5348 49.1892C67.6707 49.1892 68.6097 49.2044 69.3367 49.2271C70.0713 49.2422 70.6847 49.318 71.1769 49.4316C71.6122 49.5256 72.0241 49.7059 72.3886 49.9618C72.7066 50.1966 73.0095 50.5451 73.2973 50.992V49.7649C73.2973 48.6287 73.2216 47.7425 73.0701 47.1138C72.9543 46.537 72.6172 46.0285 72.1311 45.6973C71.5213 45.3459 70.8351 45.1483 70.1319 45.1217C69.2761 45.0459 68.1402 45.0081 66.7392 45.0081C65.6563 45.0081 64.7854 45.0308 64.119 45.0838C63.4526 45.1444 62.9377 45.2656 62.559 45.4625C62.1804 45.6519 61.9229 45.917 61.779 46.273C61.6352 46.629 61.5594 47.1062 61.5594 47.7122H59.3633C59.3633 46.7426 59.4693 45.9549 59.6814 45.3413C59.8934 44.7278 60.272 44.2506 60.8173 43.9022C61.5009 43.5016 62.2629 43.2536 63.0513 43.175C63.9827 43.0462 65.1717 42.9857 66.6181 42.9857C68.375 42.9857 69.8289 43.0462 70.9724 43.175C71.9235 43.2416 72.8475 43.5212 73.6759 43.9931C74.3286 44.4093 74.8139 45.0422 75.0466 45.7807C75.3117 46.5533 75.4404 47.5758 75.4404 48.8635V58.2787H73.2973V56.5138L73.3049 56.5214ZM60.8855 54.0445C60.8855 54.7111 60.999 55.211 61.2187 55.5594C61.4458 55.9003 61.779 56.1502 62.2334 56.3169C62.6878 56.4684 63.2633 56.5593 63.9676 56.582C65.828 56.6289 67.6894 56.6137 69.5488 56.5366C70.4045 56.4835 71.1163 56.3548 71.6691 56.1654C72.2295 55.976 72.646 55.6806 72.9035 55.2943C73.161 54.908 73.2897 54.4005 73.2897 53.7567C73.2897 53.1128 73.1686 52.6129 72.9111 52.2418C72.6349 51.8592 72.2414 51.5773 71.7903 51.4389C71.1816 51.2504 70.5494 51.1484 69.9122 51.1359C67.9588 51.0587 66.0029 51.0738 64.0509 51.1813C63.2179 51.2495 62.559 51.3858 62.082 51.5828C61.8709 51.6623 61.6781 51.7839 61.5154 51.9401C61.3527 52.0964 61.2234 52.284 61.1354 52.4917C60.9688 52.8856 60.8855 53.4007 60.8855 54.0445ZM113.35 55.3322C113.123 55.9912 112.82 56.5366 112.464 56.9532C112.108 57.3698 111.669 57.6955 111.139 57.9151C110.609 58.1424 109.988 58.2939 109.283 58.3847C108.579 58.4681 107.769 58.5135 106.845 58.5135C105.551 58.5285 104.258 58.4271 102.983 58.2105C102.266 58.0867 101.587 57.7987 101 57.369C100.413 56.9393 99.9328 56.3796 99.5977 55.7336C99.4325 55.3783 99.3105 55.0045 99.2342 54.6202C99.1585 54.2415 99.113 53.8324 99.0903 53.4083C99.0752 52.9765 99.0676 52.5145 99.0676 52.0221V43.175H101.112V51.4313C101.112 52.4387 101.188 53.2643 101.339 53.9082C101.476 54.552 101.756 55.0671 102.172 55.4534C102.589 55.8321 103.164 56.1048 103.914 56.2563C104.649 56.4078 105.618 56.4835 106.815 56.4835C108.2 56.4835 109.374 56.3699 110.328 56.1578C111.046 56.0172 111.706 55.6651 112.223 55.1469C112.74 54.6287 113.09 53.9679 113.229 53.2492C113.304 52.7038 113.35 52.0979 113.35 51.4313V43.175H115.395V58.2787H113.35V55.3246V55.3322ZM122.892 45.8488C123.043 45.3565 123.248 44.9323 123.497 44.5612C123.762 44.185 124.109 43.8742 124.512 43.6522C124.993 43.383 125.515 43.1961 126.057 43.0993C126.663 42.9857 127.39 42.9251 128.238 42.9251C128.92 42.9251 129.541 42.9402 130.116 42.9554C130.699 42.9781 131.229 43.0311 131.706 43.1371C132.184 43.2432 132.623 43.372 133.009 43.5689C133.395 43.7583 133.751 44.0385 134.084 44.4021C134.579 44.9698 134.905 45.6654 135.023 46.4094C135.144 47.1668 135.205 48.0758 135.205 49.1286V49.8331H133.213C133.213 49.0605 133.191 48.3787 133.138 47.7804C133.112 47.2412 132.956 46.7162 132.683 46.2503C132.387 45.8046 131.954 45.4671 131.449 45.2883C130.686 45.0308 129.883 44.9153 129.079 44.9475C127.958 44.9475 127.004 45.0005 126.216 45.1141C125.531 45.1834 124.871 45.4145 124.293 45.7882C123.786 46.1519 123.411 46.6702 123.225 47.2653C122.998 47.9091 122.892 48.765 122.892 49.8406V58.2863H120.839V43.1826H122.884V45.8488H122.892ZM153.599 56.5214C153.378 56.9481 153.083 57.3327 152.729 57.6576C152.426 57.9303 152.032 58.1272 151.562 58.256C151.085 58.3847 150.502 58.4605 149.821 58.4832C147.829 58.5318 145.837 58.5268 143.846 58.4681C142.96 58.4565 142.082 58.2978 141.248 57.9984C140.572 57.748 139.999 57.2788 139.62 56.6653C139.241 56.0594 139.052 55.1807 139.052 54.0445C139.052 52.9538 139.166 52.0827 139.385 51.4389C139.612 50.795 140.014 50.3103 140.597 49.977C141.342 49.5997 142.156 49.3805 142.99 49.3331C143.99 49.2422 145.269 49.1892 146.829 49.1892C147.965 49.1892 148.904 49.2044 149.631 49.2271C150.366 49.2422 150.979 49.318 151.471 49.4316C151.907 49.5256 152.319 49.7059 152.683 49.9618C153.009 50.1966 153.312 50.5451 153.592 50.992V49.7649C153.592 48.6287 153.516 47.7425 153.365 47.1138C153.249 46.537 152.912 46.0285 152.426 45.6973C151.818 45.347 151.135 45.1495 150.434 45.1217C149.303 45.0362 148.168 44.9983 147.034 45.0081C145.958 45.0081 145.08 45.0308 144.421 45.0838C143.88 45.1104 143.348 45.2389 142.854 45.4625C142.475 45.6519 142.217 45.917 142.074 46.273C141.93 46.629 141.862 47.1062 141.862 47.7122H139.665C139.665 46.7426 139.764 45.9549 139.976 45.3413C140.188 44.7278 140.574 44.2506 141.119 43.9022C141.8 43.5013 142.56 43.2532 143.346 43.175C144.285 43.0462 145.466 42.9857 146.92 42.9857C148.67 42.9857 150.124 43.0462 151.267 43.175C152.221 43.2405 153.147 43.5201 153.978 43.9931C154.628 44.4107 155.11 45.0434 155.341 45.7807C155.606 46.5533 155.735 47.5758 155.735 48.8635V58.2787H153.599V56.5138V56.5214ZM141.195 54.0445C141.195 54.7111 141.301 55.211 141.528 55.5594C141.748 55.9003 142.081 56.1502 142.536 56.3169C142.99 56.4684 143.565 56.5593 144.277 56.582C146.135 56.6287 147.994 56.6136 149.851 56.5366C150.714 56.4835 151.418 56.3548 151.979 56.1654C152.539 55.976 152.948 55.6806 153.206 55.2943C153.463 54.908 153.599 54.4005 153.599 53.7567C153.599 53.1128 153.471 52.6129 153.221 52.2418C152.943 51.8578 152.546 51.5758 152.092 51.4389C151.484 51.2504 150.852 51.1484 150.214 51.1359C148.263 51.0589 146.31 51.0741 144.361 51.1813C143.528 51.2495 142.869 51.3858 142.392 51.5828C141.922 51.7873 141.604 52.0903 141.437 52.4917C141.278 52.8856 141.195 53.4007 141.195 54.0445Z" fill="#1F5729"/><path d="M88.374 33.2523C91.2517 35.3732 94.7352 33.8582 96.0529 32.8584C97.3554 31.8737 98.249 30.5482 98.9684 29.109C99.5327 27.9526 99.9939 26.7486 100.347 25.5111C100.68 24.3825 100.937 23.2387 101.157 22.0874C101.361 21.0572 101.52 20.0271 101.626 18.9818L101.687 18.6788C101.702 18.5879 101.778 18.4894 101.695 18.4289C101.619 18.3758 101.528 18.4592 101.452 18.4819C100.15 18.9363 98.8548 19.3908 97.5371 19.7998C96.2279 20.2179 94.9072 20.5993 93.5766 20.9436C92.0189 21.3051 90.5522 21.9832 89.2676 22.9357C88.234 23.6763 87.418 24.6808 86.9049 25.8443C86.4278 26.9805 85.4964 31.1238 88.374 33.2523ZM78.0144 28.3894C72.2894 28.753 69.8131 26.5715 68.5105 25.1778C67.2506 23.7792 66.2711 22.1514 65.6253 20.3831C64.967 18.6354 64.4973 16.8224 64.2243 14.9748C64.0067 13.7382 63.8752 12.4879 63.8305 11.233C63.8078 10.0514 63.7018 8.86217 63.7094 7.67296C63.7094 6.5292 63.8154 5.37787 63.8305 4.22654C63.8533 2.90099 64.035 1.59059 64.1335 0.272613C64.141 0.121122 64.1789 0.105973 64.3152 0.196868C67.2837 2.04506 70.2977 3.82509 73.3874 5.48392C74.849 6.27924 76.3863 6.93823 77.81 7.80931C79.9303 9.09698 81.8008 10.6801 83.2094 12.7479C84.5796 14.6345 85.2419 16.9434 85.0799 19.2696C84.9814 20.5119 83.7395 28.0182 78.0144 28.3894Z" fill="#5D9037"/><path d="M92.9038 52.1508C92.9038 52.984 92.8887 53.6809 92.866 54.2339C92.8631 54.7089 92.7267 55.1735 92.4722 55.5746C92.245 55.9003 91.8663 56.1426 91.359 56.2941C90.8516 56.4456 90.1094 56.5214 89.1477 56.5214C88.239 56.5214 87.5195 56.4608 86.9894 56.3396C86.5252 56.2577 86.0971 56.0357 85.7626 55.7033C85.4529 55.3447 85.2577 54.9015 85.2023 54.4308C85.1055 53.7383 85.0625 53.0393 85.0735 52.3402V45.1141H94.4411V43.1447H85.1114V40.2512C85.7401 37.7136 86.7841 35.2976 88.2011 33.1008C91.359 28.291 96.0541 24.2689 96.0541 24.2689C96.0541 24.2689 90.9273 27.2229 87.3226 32.154C86.2283 33.6656 85.3348 35.313 84.6646 37.0547C84.1767 33.4991 83.2166 30.0245 81.8096 26.723L81.7036 26.4882C77.016 15.7778 69.2539 9.29395 69.2539 9.29395C69.2539 9.29395 76.0846 17.4821 80.1436 27.7001L80.2496 27.9804C81.8399 32.0555 82.9683 35.9489 83.0137 41.2132V43.1523H79.7195V45.1141H83.0137V52.3402C83.0137 53.0068 83.0289 53.6279 83.044 54.1884C83.0667 54.7565 83.1349 55.2716 83.2485 55.7336C83.3621 56.1881 83.559 56.5971 83.8391 56.9531C84.1193 57.3091 84.5207 57.6121 85.0432 57.8621C85.6188 58.1651 86.2473 58.3544 86.9213 58.4302C87.5953 58.5059 88.3298 58.5438 89.1174 58.5438C90.5259 58.5438 91.6089 58.415 92.3737 58.1651C93.131 57.8999 93.6914 57.4909 94.0473 56.938C94.4328 56.2841 94.6513 55.5452 94.6834 54.7868C94.7516 53.9081 94.7819 52.8553 94.7819 51.6358H92.9038V52.1508Z" fill="#1F5729"/><path d="M150.73 74.9999V69.1619H151.817L151.822 69.7814C151.966 69.6834 152.146 69.5802 152.363 69.4717C152.584 69.3632 152.82 69.2704 153.072 69.1934C153.327 69.1164 153.581 69.0744 153.833 69.0674C154.46 69.0499 154.909 69.2127 155.182 69.5557C155.455 69.8952 155.592 70.4937 155.592 71.3512V74.9999H154.374V71.4142C154.374 70.9242 154.307 70.5724 154.174 70.3589C154.045 70.1454 153.761 70.0509 153.324 70.0754C153.201 70.0789 153.06 70.1017 152.899 70.1437C152.741 70.1822 152.578 70.2399 152.41 70.3169C152.246 70.3904 152.088 70.4849 151.938 70.6004V74.9999H150.73Z" fill="#1F5729"/><path d="M146.965 75.0839C146.125 75.0839 145.477 74.8179 145.022 74.2859C144.567 73.7539 144.34 73.0154 144.34 72.0704C144.34 71.5034 144.44 70.9959 144.639 70.5479C144.842 70.0999 145.14 69.7446 145.532 69.4821C145.927 69.2196 146.412 69.0849 146.986 69.0779C147.28 69.0709 147.556 69.1129 147.815 69.2039C148.074 69.2949 148.304 69.4331 148.503 69.6186C148.703 69.8006 148.86 70.0316 148.976 70.3116C149.095 70.5916 149.159 70.9189 149.17 71.2934C149.17 71.5139 149.168 71.7116 149.165 71.8866C149.161 72.0581 149.145 72.2104 149.117 72.3434H145.043L145.148 71.5769H148.036C148.053 71.2969 148.036 71.0326 147.983 70.7841C147.934 70.5321 147.826 70.3291 147.658 70.1751C147.493 70.0176 147.248 69.9389 146.923 69.9389C146.65 69.9389 146.405 70.0159 146.188 70.1699C145.971 70.3204 145.803 70.5759 145.684 70.9364C145.565 71.2969 145.516 71.7904 145.537 72.4169C145.558 72.8579 145.647 73.2061 145.805 73.4616C145.962 73.7171 146.169 73.8991 146.424 74.0076C146.68 74.1161 146.965 74.1704 147.28 74.1704C147.413 74.1704 147.576 74.1564 147.768 74.1284C147.961 74.0969 148.146 74.0584 148.325 74.0129C148.507 73.9639 148.645 73.9114 148.739 73.8554L148.97 74.5484C148.841 74.6534 148.664 74.7461 148.44 74.8266C148.22 74.9071 147.98 74.9701 147.721 75.0156C147.462 75.0611 147.21 75.0839 146.965 75.0839Z" fill="#1F5729"/><path d="M137.959 74.9999V69.1619H139.046L139.051 69.7814C139.194 69.6834 139.375 69.5802 139.592 69.4717C139.812 69.3632 140.048 69.2704 140.3 69.1934C140.556 69.1164 140.81 69.0744 141.062 69.0674C141.688 69.0499 142.138 69.2127 142.411 69.5557C142.684 69.8952 142.82 70.4937 142.82 71.3512V74.9999H141.602V71.4142C141.602 70.9242 141.536 70.5724 141.403 70.3589C141.273 70.1454 140.99 70.0509 140.552 70.0754C140.43 70.0789 140.288 70.1017 140.127 70.1437C139.97 70.1822 139.807 70.2399 139.639 70.3169C139.474 70.3904 139.317 70.4849 139.166 70.6004V74.9999H137.959Z" fill="#1F5729"/><path d="M131.15 74.9999V66.4634H132.358V68.8679L132.295 69.9231L132.237 69.7866C132.377 69.6746 132.556 69.5644 132.773 69.4559C132.99 69.3474 133.224 69.2581 133.476 69.1881C133.728 69.1146 133.978 69.0744 134.227 69.0674C134.864 69.0499 135.326 69.2249 135.613 69.5924C135.903 69.9599 136.049 70.5706 136.049 71.4246V74.9999H134.841V71.4141C134.841 70.9346 134.766 70.5881 134.615 70.3746C134.468 70.1611 134.181 70.0649 133.754 70.0859C133.569 70.0894 133.347 70.1331 133.088 70.2171C132.829 70.3011 132.585 70.4289 132.358 70.6004V74.9999H131.15Z" fill="#1F5729"/><path d="M126.913 75.0839C126.437 75.0839 126.033 74.9999 125.7 74.8319C125.368 74.6639 125.098 74.4346 124.892 74.1441C124.685 73.8536 124.535 73.5211 124.44 73.1466C124.349 72.7686 124.305 72.3714 124.309 71.9549C124.319 71.3284 124.444 70.8016 124.682 70.3746C124.92 69.9476 125.242 69.6256 125.648 69.4086C126.054 69.1881 126.51 69.0779 127.018 69.0779C127.655 69.0779 128.164 69.2231 128.546 69.5136C128.931 69.8006 129.207 70.1821 129.375 70.6581C129.547 71.1306 129.629 71.6434 129.622 72.1964C129.611 72.8229 129.487 73.3514 129.249 73.7819C129.015 74.2089 128.694 74.5326 128.288 74.7531C127.886 74.9736 127.427 75.0839 126.913 75.0839ZM126.944 74.2281C127.424 74.2351 127.784 74.0549 128.026 73.6874C128.271 73.3164 128.393 72.8036 128.393 72.1491C128.393 71.7431 128.344 71.3756 128.246 71.0466C128.148 70.7141 127.994 70.4481 127.784 70.2486C127.578 70.0491 127.312 69.9476 126.986 69.9441C126.51 69.9336 126.152 70.1051 125.91 70.4586C125.669 70.8121 125.548 71.3161 125.548 71.9706C125.548 72.3766 125.597 72.7494 125.695 73.0889C125.793 73.4284 125.945 73.7014 126.152 73.9079C126.358 74.1144 126.622 74.2211 126.944 74.2281Z" fill="#1F5729"/><path d="M117.185 75.0839L115.4 69.1514H116.613L117.521 72.5376L117.947 74.4276H117.621L118.02 72.5481L118.97 69.1514H120.157L121.107 72.5376L121.511 74.4066H121.207L121.622 72.5744L122.493 69.1514H123.674L121.884 75.0839H120.776L119.747 71.3879L119.427 69.8129H119.679L119.338 71.3879L118.33 75.0839H117.185Z" fill="#1F5729"/><path d="M111.118 74.9999V74.2229L111.055 74.1914V70.0544L111.097 70.0229L111.055 68.8679V66.4634H112.262V74.9999H111.118ZM109.485 75.0839C109.076 75.0839 108.694 74.9824 108.341 74.7794C107.991 74.5764 107.707 74.2684 107.49 73.8554C107.277 73.4424 107.17 72.9191 107.17 72.2856C107.17 71.6521 107.292 71.0956 107.537 70.6161C107.782 70.1331 108.124 69.7569 108.561 69.4874C109.002 69.2144 109.518 69.0779 110.11 69.0779C110.47 69.0779 110.773 69.1216 111.018 69.2091C111.263 69.2931 111.419 69.3649 111.485 69.4244L111.055 70.1961C110.95 70.1051 110.81 70.0421 110.635 70.0071C110.463 69.9721 110.259 69.9546 110.021 69.9546C109.723 69.9546 109.454 70.0369 109.212 70.2014C108.974 70.3659 108.783 70.6109 108.64 70.9364C108.496 71.2619 108.423 71.6644 108.419 72.1439C108.409 72.8299 108.528 73.3321 108.776 73.6506C109.025 73.9691 109.373 74.1284 109.821 74.1284C110.094 74.1284 110.337 74.0776 110.551 73.9761C110.768 73.8746 110.936 73.7766 111.055 73.6821L111.254 74.2806C111.17 74.3681 111.058 74.4749 110.918 74.6009C110.778 74.7269 110.593 74.8389 110.362 74.9369C110.131 75.0349 109.839 75.0839 109.485 75.0839Z" fill="#1F5729"/><path d="M100.818 74.9999V69.1619H101.905L101.91 69.7814C102.054 69.6834 102.234 69.5802 102.451 69.4717C102.672 69.3632 102.908 69.2704 103.16 69.1934C103.415 69.1164 103.669 69.0744 103.921 69.0674C104.548 69.0499 104.997 69.2127 105.27 69.5557C105.543 69.8952 105.68 70.4937 105.68 71.3512V74.9999H104.462V71.4142C104.462 70.9242 104.395 70.5724 104.262 70.3589C104.133 70.1454 103.849 70.0509 103.412 70.0754C103.289 70.0789 103.148 70.1017 102.987 70.1437C102.829 70.1822 102.666 70.2399 102.498 70.3169C102.334 70.3904 102.176 70.4849 102.026 70.6004V74.9999H100.818Z" fill="#1F5729"/><path d="M95.921 75.0839C95.5395 75.0839 95.2315 75.0244 94.997 74.9054C94.7625 74.7864 94.584 74.6166 94.4615 74.3961C94.339 74.1721 94.255 73.9061 94.2095 73.5981C94.1675 73.2901 94.1465 72.9489 94.1465 72.5744V69.1514H95.354V72.5639C95.354 73.0259 95.389 73.3654 95.459 73.5824C95.5325 73.7994 95.6445 73.9394 95.795 74.0024C95.949 74.0654 96.1485 74.0969 96.3935 74.0969C96.537 74.0969 96.6892 74.0759 96.8502 74.0339C97.0147 73.9884 97.1687 73.9359 97.3122 73.8764C97.4557 73.8134 97.5695 73.7539 97.6535 73.6979V69.1514H98.861V75.0839H98.3045C98.1435 75.0839 98.0157 75.0594 97.9212 75.0104C97.8267 74.9649 97.7795 74.8459 97.7795 74.6534V74.2439L97.8005 74.4749C97.643 74.5799 97.4575 74.6796 97.244 74.7741C97.034 74.8651 96.8135 74.9404 96.5825 74.9999C96.3515 75.0559 96.131 75.0839 95.921 75.0839Z" fill="#1F5729"/><path d="M85.4785 74.9999V69.1619H86.5653L86.5705 69.7814C86.714 69.6834 86.8943 69.5802 87.1113 69.4717C87.3318 69.3632 87.568 69.2704 87.82 69.1934C88.0755 69.1164 88.3293 69.0744 88.5813 69.0674C89.2078 69.0499 89.6575 69.2127 89.9305 69.5557C90.2035 69.8952 90.34 70.4937 90.34 71.3512V74.9999H89.122V71.4142C89.122 70.9242 89.0555 70.5724 88.9225 70.3589C88.793 70.1454 88.5095 70.0509 88.072 70.0754C87.9495 70.0789 87.8078 70.1017 87.6468 70.1437C87.4893 70.1822 87.3265 70.2399 87.1585 70.3169C86.994 70.3904 86.8365 70.4849 86.686 70.6004V74.9999H85.4785Z" fill="#1F5729"/><path d="M81.7129 75.0839C80.8729 75.0839 80.2254 74.8179 79.7704 74.2859C79.3154 73.7539 79.0879 73.0154 79.0879 72.0704C79.0879 71.5034 79.1876 70.9959 79.3871 70.5479C79.5901 70.0999 79.8876 69.7446 80.2796 69.4821C80.6751 69.2196 81.1599 69.0849 81.7339 69.0779C82.0279 69.0709 82.3044 69.1129 82.5634 69.2039C82.8224 69.2949 83.0516 69.4331 83.2511 69.6186C83.4506 69.8006 83.6081 70.0316 83.7236 70.3116C83.8426 70.5916 83.9074 70.9189 83.9179 71.2934C83.9179 71.5139 83.9161 71.7116 83.9126 71.8866C83.9091 72.0581 83.8934 72.2104 83.8654 72.3434H79.7914L79.8964 71.5769H82.7839C82.8014 71.2969 82.7839 71.0326 82.7314 70.7841C82.6824 70.5321 82.5739 70.3291 82.4059 70.1751C82.2414 70.0176 81.9964 69.9389 81.6709 69.9389C81.3979 69.9389 81.1529 70.0159 80.9359 70.1699C80.7189 70.3204 80.5509 70.5759 80.4319 70.9364C80.3129 71.2969 80.2639 71.7904 80.2849 72.4169C80.3059 72.8579 80.3951 73.2061 80.5526 73.4616C80.7101 73.7171 80.9166 73.8991 81.1721 74.0076C81.4276 74.1161 81.7129 74.1704 82.0279 74.1704C82.1609 74.1704 82.3236 74.1564 82.5161 74.1284C82.7086 74.0969 82.8941 74.0584 83.0726 74.0129C83.2546 73.9639 83.3929 73.9114 83.4874 73.8554L83.7184 74.5484C83.5889 74.6534 83.4121 74.7461 83.1881 74.8266C82.9676 74.9071 82.7279 74.9701 82.4689 75.0156C82.2099 75.0611 81.9579 75.0839 81.7129 75.0839Z" fill="#1F5729"/><path d="M75.585 74.9999V70.0491H74.7188V69.3719L75.585 69.1514V68.6369C75.585 68.2029 75.6497 67.8406 75.7792 67.5501C75.9087 67.2596 76.0785 67.0286 76.2885 66.8571C76.502 66.6856 76.733 66.5631 76.9815 66.4896C77.2335 66.4161 77.4785 66.3794 77.7165 66.3794C77.888 66.3794 78.0472 66.3934 78.1942 66.4214C78.3412 66.4459 78.4427 66.4669 78.4987 66.4844V67.4189C78.3972 67.3874 78.2835 67.3629 78.1575 67.3454C78.0315 67.3279 77.8565 67.3191 77.6325 67.3191C77.391 67.3191 77.1915 67.4119 77.034 67.5974C76.88 67.7794 76.803 68.0559 76.803 68.4269V69.1514H78.2257V70.0491H76.803V74.9999H75.585Z" fill="#1F5729"/><path d="M70.6009 75.084C70.2509 75.084 69.9394 75.0158 69.6664 74.8793C69.3969 74.7393 69.1834 74.5433 69.0259 74.2913C68.8719 74.0358 68.7949 73.7348 68.7949 73.3883C68.7949 73.0138 68.8947 72.697 69.0942 72.438C69.2972 72.1755 69.5684 71.9708 69.9079 71.8238C70.1319 71.7328 70.3752 71.661 70.6377 71.6085C70.9002 71.5525 71.1627 71.514 71.4252 71.493C71.6877 71.4685 71.9309 71.4563 72.1549 71.4563L72.4069 71.7765L72.1549 72.2018C72.0184 72.2018 71.8539 72.2123 71.6614 72.2333C71.4724 72.2508 71.2852 72.2805 71.0997 72.3225C70.9142 72.361 70.7567 72.4118 70.6272 72.4748C70.4487 72.5553 70.2999 72.6585 70.1809 72.7845C70.0619 72.9105 70.0024 73.0855 70.0024 73.3095C70.0024 73.6035 70.0829 73.8258 70.2439 73.9763C70.4084 74.1268 70.6517 74.202 70.9737 74.202C71.1382 74.202 71.3044 74.1775 71.4724 74.1285C71.6404 74.0795 71.7857 74.0235 71.9082 73.9605C72.0342 73.8975 72.1164 73.8433 72.1549 73.7978L72.3964 74.055L72.2232 74.5065C72.0692 74.6465 71.8469 74.7778 71.5564 74.9003C71.2659 75.0228 70.9474 75.084 70.6009 75.084ZM73.3677 75H72.2232V74.1285H72.1549V70.905C72.1549 70.562 72.0639 70.3363 71.8819 70.2278C71.7034 70.1158 71.4479 70.0598 71.1154 70.0598C70.8949 70.0598 70.6674 70.0825 70.4329 70.128C70.1984 70.17 69.9832 70.2243 69.7872 70.2908C69.5912 70.3538 69.4407 70.4185 69.3357 70.485L69.0522 69.6135C69.1327 69.5645 69.2867 69.4963 69.5142 69.4088C69.7452 69.3213 70.0129 69.2425 70.3174 69.1725C70.6254 69.099 70.9299 69.0623 71.2309 69.0623C71.6684 69.0623 72.0464 69.113 72.3649 69.2145C72.6869 69.316 72.9337 69.505 73.1052 69.7815C73.2802 70.0545 73.3677 70.4518 73.3677 70.9733V75Z" fill="#1F5729"/><path d="M66.0039 74.9999V66.4634H67.2219V74.9999H66.0039Z" fill="#1F5729"/><path d="M59.1543 74.9999V66.4634H60.3618V68.8679L60.2988 69.9231L60.241 69.7866C60.381 69.6746 60.5595 69.5644 60.7765 69.4559C60.9935 69.3474 61.228 69.2581 61.48 69.1881C61.732 69.1146 61.9823 69.0744 62.2308 69.0674C62.8678 69.0499 63.3298 69.2249 63.6168 69.5924C63.9073 69.9599 64.0525 70.5706 64.0525 71.4246V74.9999H62.845V71.4141C62.845 70.9346 62.7698 70.5881 62.6193 70.3746C62.4723 70.1611 62.1853 70.0649 61.7583 70.0859C61.5728 70.0894 61.3505 70.1331 61.0915 70.2171C60.8325 70.3011 60.5893 70.4289 60.3618 70.6004V74.9999H59.1543Z" fill="#1F5729"/><path d="M53.4023 72.1439C53.4023 71.5664 53.5073 71.0466 53.7173 70.5846C53.9273 70.1226 54.2423 69.7569 54.6623 69.4874C55.0823 69.2144 55.6073 69.0779 56.2373 69.0779C56.6048 69.0779 56.9163 69.1111 57.1718 69.1776C57.4273 69.2441 57.6023 69.3089 57.6968 69.3719L57.5078 70.3274C57.3608 70.2259 57.1841 70.1506 56.9776 70.1016C56.7711 70.0491 56.5208 70.0229 56.2268 70.0229C55.9643 70.0229 55.7106 70.0876 55.4656 70.2171C55.2206 70.3431 55.0158 70.5461 54.8513 70.8261C54.6868 71.1061 54.5958 71.4754 54.5783 71.9339C54.5643 72.4169 54.6273 72.8246 54.7673 73.1571C54.9108 73.4861 55.1068 73.7364 55.3553 73.9079C55.6073 74.0759 55.8873 74.1599 56.1953 74.1599C56.4858 74.1599 56.7536 74.1231 56.9986 74.0496C57.2471 73.9761 57.4343 73.9009 57.5603 73.8239L57.7913 74.5274C57.6128 74.6954 57.3608 74.8301 57.0353 74.9316C56.7098 75.0331 56.3633 75.0839 55.9958 75.0839C55.4393 75.0839 54.9686 74.9544 54.5836 74.6954C54.1986 74.4364 53.9046 74.0864 53.7016 73.6454C53.5021 73.2009 53.4023 72.7004 53.4023 72.1439Z" fill="#1F5729"/><path d="M48.3379 74.6534L48.5059 73.7609C48.5584 73.7994 48.6669 73.8519 48.8314 73.9184C48.9994 73.9814 49.1989 74.0409 49.4299 74.0969C49.6644 74.1494 49.9059 74.1774 50.1544 74.1809C50.4904 74.1844 50.7459 74.1266 50.9209 74.0076C51.0959 73.8886 51.1834 73.7224 51.1834 73.5089C51.1834 73.3584 51.1309 73.2271 51.0259 73.1151C50.9209 73.0031 50.7756 72.8999 50.5901 72.8054C50.4081 72.7074 50.1999 72.6059 49.9654 72.5009C49.6504 72.3574 49.3721 72.2016 49.1306 72.0336C48.8891 71.8656 48.7001 71.6679 48.5636 71.4404C48.4306 71.2129 48.3659 70.9399 48.3694 70.6214C48.3764 70.2749 48.4761 69.9879 48.6686 69.7604C48.8646 69.5294 49.1236 69.3579 49.4456 69.2459C49.7676 69.1339 50.1264 69.0779 50.5219 69.0779C50.8894 69.0779 51.2114 69.1164 51.4879 69.1934C51.7644 69.2669 51.9464 69.3299 52.0339 69.3824L51.8554 70.2959C51.7924 70.2434 51.6944 70.1926 51.5614 70.1436C51.4319 70.0911 51.2814 70.0491 51.1099 70.0176C50.9384 69.9861 50.7634 69.9704 50.5849 69.9704C50.2279 69.9704 49.9584 70.0229 49.7764 70.1279C49.5944 70.2294 49.4999 70.3729 49.4929 70.5584C49.4894 70.8139 49.5769 71.0046 49.7554 71.1306C49.9374 71.2566 50.1544 71.3809 50.4064 71.5034C50.7669 71.6784 51.0924 71.8516 51.3829 72.0231C51.6734 72.1911 51.9026 72.3854 52.0706 72.6059C52.2421 72.8229 52.3279 73.0924 52.3279 73.4144C52.3279 73.9604 52.1406 74.3751 51.7661 74.6586C51.3916 74.9421 50.8789 75.0839 50.2279 75.0839C49.9584 75.0839 49.6959 75.0629 49.4404 75.0209C49.1884 74.9789 48.9644 74.9246 48.7684 74.8581C48.5759 74.7916 48.4324 74.7234 48.3379 74.6534Z" fill="#1F5729"/><path d="M39.8535 74.9999V66.4634H41.061V68.8679L40.998 69.9231L40.9403 69.7866C41.0803 69.6746 41.2588 69.5644 41.4758 69.4559C41.6928 69.3474 41.9273 69.2581 42.1793 69.1881C42.4313 69.1146 42.6815 69.0744 42.93 69.0674C43.567 69.0499 44.029 69.2249 44.316 69.5924C44.6065 69.9599 44.7518 70.5706 44.7518 71.4246V74.9999H43.5443V71.4141C43.5443 70.9346 43.469 70.5881 43.3185 70.3746C43.1715 70.1611 42.8845 70.0649 42.4575 70.0859C42.272 70.0894 42.0498 70.1331 41.7908 70.2171C41.5318 70.3011 41.2885 70.4289 41.061 70.6004V74.9999H39.8535Z" fill="#1F5729"/><path d="M34.1016 72.1439C34.1016 71.5664 34.2066 71.0466 34.4166 70.5846C34.6266 70.1226 34.9416 69.7569 35.3616 69.4874C35.7816 69.2144 36.3066 69.0779 36.9366 69.0779C37.3041 69.0779 37.6156 69.1111 37.8711 69.1776C38.1266 69.2441 38.3016 69.3089 38.3961 69.3719L38.2071 70.3274C38.0601 70.2259 37.8833 70.1506 37.6768 70.1016C37.4703 70.0491 37.2201 70.0229 36.9261 70.0229C36.6636 70.0229 36.4098 70.0876 36.1648 70.2171C35.9198 70.3431 35.7151 70.5461 35.5506 70.8261C35.3861 71.1061 35.2951 71.4754 35.2776 71.9339C35.2636 72.4169 35.3266 72.8246 35.4666 73.1571C35.6101 73.4861 35.8061 73.7364 36.0546 73.9079C36.3066 74.0759 36.5866 74.1599 36.8946 74.1599C37.1851 74.1599 37.4528 74.1231 37.6978 74.0496C37.9463 73.9761 38.1336 73.9009 38.2596 73.8239L38.4906 74.5274C38.3121 74.6954 38.0601 74.8301 37.7346 74.9316C37.4091 75.0331 37.0626 75.0839 36.6951 75.0839C36.1386 75.0839 35.6678 74.9544 35.2828 74.6954C34.8978 74.4364 34.6038 74.0864 34.4008 73.6454C34.2013 73.2009 34.1016 72.7004 34.1016 72.1439Z" fill="#1F5729"/><path d="M31.384 75V69.162H32.5915V75H31.384ZM31.9195 68.1277C31.7165 68.1277 31.538 68.063 31.384 67.9335C31.2335 67.804 31.1582 67.6272 31.1582 67.4032C31.1582 67.2492 31.2002 67.111 31.2842 66.9885C31.3717 66.8625 31.482 66.7627 31.615 66.6892C31.748 66.6122 31.8862 66.5737 32.0297 66.5737C32.2782 66.5737 32.4655 66.6437 32.5915 66.7837C32.7175 66.9237 32.7805 67.0952 32.7805 67.2982C32.7805 67.5397 32.693 67.7392 32.518 67.8967C32.3465 68.0507 32.147 68.1277 31.9195 68.1277Z" fill="#1F5729"/><path d="M28.1289 74.9999V66.4634H29.3469V74.9999H28.1289Z" fill="#1F5729"/><path d="M24.7441 70.7054L24.6706 69.9074C24.7231 69.7989 24.8334 69.6799 25.0014 69.5504C25.1694 69.4174 25.3671 69.3036 25.5946 69.2091C25.8256 69.1146 26.0601 69.0674 26.2981 69.0674C26.4311 69.0674 26.5449 69.0726 26.6394 69.0831C26.7374 69.0936 26.8091 69.1129 26.8546 69.1409V70.2749C26.8021 70.2469 26.7216 70.2171 26.6131 70.1856C26.5081 70.1541 26.3366 70.1384 26.0986 70.1384C25.8816 70.1384 25.6856 70.1699 25.5106 70.2329C25.3391 70.2924 25.1886 70.3659 25.0591 70.4534C24.9296 70.5409 24.8246 70.6249 24.7441 70.7054ZM23.5996 74.9999V69.1619H24.6286L24.7126 69.9074L24.8071 70.3484V74.9999H23.5996Z" fill="#1F5729"/><path d="M18.8077 75.084C18.4262 75.084 18.1182 75.0245 17.8837 74.9055C17.6492 74.7865 17.4707 74.6167 17.3482 74.3962C17.2257 74.1722 17.1417 73.9062 17.0962 73.5982C17.0542 73.2902 17.0332 72.949 17.0332 72.5745V69.1515H18.2407V72.564C18.2407 73.026 18.2757 73.3655 18.3457 73.5825C18.4192 73.7995 18.5312 73.9395 18.6817 74.0025C18.8357 74.0655 19.0352 74.097 19.2802 74.097C19.4237 74.097 19.576 74.076 19.737 74.034C19.9015 73.9885 20.0555 73.936 20.199 73.8765C20.3425 73.8135 20.4562 73.754 20.5402 73.698V69.1515H21.7477V75.084H21.1912C21.0302 75.084 20.9025 75.0595 20.808 75.0105C20.7135 74.965 20.6662 74.846 20.6662 74.6535V74.244L20.6872 74.475C20.5297 74.58 20.3442 74.6797 20.1307 74.7742C19.9207 74.8652 19.7002 74.9405 19.4692 75C19.2382 75.056 19.0177 75.084 18.8077 75.084ZM18.1987 68.1645C18.0027 68.1645 17.8365 68.1015 17.7 67.9755C17.5635 67.8495 17.4952 67.6797 17.4952 67.4662C17.4952 67.2422 17.581 67.0532 17.7525 66.8992C17.9275 66.7452 18.1165 66.6682 18.3195 66.6682C18.5575 66.6682 18.7325 66.7365 18.8445 66.873C18.9565 67.0095 19.0125 67.1757 19.0125 67.3717C19.0125 67.6062 18.9302 67.797 18.7657 67.944C18.6047 68.091 18.4157 68.1645 18.1987 68.1645ZM20.5717 68.1645C20.3792 68.1645 20.213 68.1015 20.073 67.9755C19.9365 67.8495 19.8682 67.6797 19.8682 67.4662C19.8682 67.2422 19.954 67.0532 20.1255 66.8992C20.297 66.7452 20.486 66.6682 20.6925 66.6682C20.934 66.6682 21.109 66.7365 21.2175 66.873C21.3295 67.0095 21.3855 67.1757 21.3855 67.3717C21.3855 67.6062 21.3032 67.797 21.1387 67.944C20.9777 68.091 20.7887 68.1645 20.5717 68.1645Z" fill="#1F5729"/><path d="M14.2111 75.0839C13.9346 75.0839 13.6913 75.0401 13.4813 74.9526C13.2713 74.8651 13.1068 74.7111 12.9878 74.4906C12.8723 74.2666 12.8146 73.9499 12.8146 73.5404V70.0439H12.0586V69.3929C12.3176 69.3194 12.5153 69.2581 12.6518 69.2091C12.7883 69.1566 12.8881 69.0464 12.9511 68.8784C12.9791 68.8014 13.0106 68.7104 13.0456 68.6054C13.0806 68.4969 13.1191 68.3779 13.1611 68.2484C13.2031 68.1154 13.2486 67.9719 13.2976 67.8179H14.0221V69.1514H15.6601V70.0439H14.0221V72.8999C14.0221 73.2779 14.0378 73.5544 14.0693 73.7294C14.1043 73.9009 14.1673 74.0111 14.2583 74.0601C14.3528 74.1056 14.4911 74.1284 14.6731 74.1284C14.7711 74.1284 14.8831 74.1179 15.0091 74.0969C15.1386 74.0724 15.2611 74.0426 15.3766 74.0076C15.4956 73.9726 15.5866 73.9359 15.6496 73.8974L15.8491 74.5904C15.7441 74.6709 15.6023 74.7496 15.4238 74.8266C15.2488 74.9001 15.0546 74.9614 14.8411 75.0104C14.6311 75.0594 14.4211 75.0839 14.2111 75.0839Z" fill="#1F5729"/><path d="M7.95639 75.084C7.60639 75.084 7.29489 75.0158 7.02189 74.8793C6.75239 74.7393 6.53889 74.5433 6.38139 74.2913C6.22739 74.0358 6.15039 73.7348 6.15039 73.3883C6.15039 73.0138 6.25014 72.697 6.44964 72.438C6.65264 72.1755 6.92389 71.9708 7.26339 71.8238C7.48739 71.7328 7.73064 71.661 7.99314 71.6085C8.25564 71.5525 8.51814 71.514 8.78064 71.493C9.04314 71.4685 9.28639 71.4563 9.51039 71.4563L9.76239 71.7765L9.51039 72.2018C9.37389 72.2018 9.20939 72.2123 9.01689 72.2333C8.82789 72.2508 8.64064 72.2805 8.45514 72.3225C8.26964 72.361 8.11214 72.4118 7.98264 72.4748C7.80414 72.5553 7.65539 72.6585 7.53639 72.7845C7.41739 72.9105 7.35789 73.0855 7.35789 73.3095C7.35789 73.6035 7.43839 73.8258 7.59939 73.9763C7.76389 74.1268 8.00714 74.202 8.32914 74.202C8.49364 74.202 8.65989 74.1775 8.82789 74.1285C8.99589 74.0795 9.14114 74.0235 9.26364 73.9605C9.38964 73.8975 9.47189 73.8433 9.51039 73.7978L9.75189 74.055L9.57864 74.5065C9.42464 74.6465 9.20239 74.7778 8.91189 74.9003C8.62139 75.0228 8.30289 75.084 7.95639 75.084ZM10.7231 75H9.57864V74.1285H9.51039V70.905C9.51039 70.562 9.41939 70.3363 9.23739 70.2278C9.05889 70.1158 8.80339 70.0598 8.47089 70.0598C8.25039 70.0598 8.02289 70.0825 7.78839 70.128C7.55389 70.17 7.33864 70.2243 7.14264 70.2908C6.94664 70.3538 6.79614 70.4185 6.69114 70.485L6.40764 69.6135C6.48814 69.5645 6.64214 69.4963 6.86964 69.4088C7.10064 69.3213 7.36839 69.2425 7.67289 69.1725C7.98089 69.099 8.28539 69.0623 8.58639 69.0623C9.02389 69.0623 9.40189 69.113 9.72039 69.2145C10.0424 69.316 10.2891 69.505 10.4606 69.7815C10.6356 70.0545 10.7231 70.4518 10.7231 70.9733V75Z" fill="#1F5729"/><path d="M-0.0976562 74.9999V69.1619H0.989094L0.994344 69.7814C1.13784 69.6834 1.31809 69.5802 1.53509 69.4717C1.75559 69.3632 1.99184 69.2704 2.24384 69.1934C2.49934 69.1164 2.75309 69.0744 3.00509 69.0674C3.63159 69.0499 4.08134 69.2127 4.35434 69.5557C4.62734 69.8952 4.76384 70.4937 4.76384 71.3512V74.9999H3.54584V71.4142C3.54584 70.9242 3.47934 70.5724 3.34634 70.3589C3.21684 70.1454 2.93334 70.0509 2.49584 70.0754C2.37334 70.0789 2.23159 70.1017 2.07059 70.1437C1.91309 70.1822 1.75034 70.2399 1.58234 70.3169C1.41784 70.3904 1.26034 70.4849 1.10984 70.6004V74.9999H-0.0976562Z" fill="#1F5729"/></g><defs><clipPath id="clip0_1071_44213"><rect width="156" height="75.7457" fill="white"/></clipPath></defs></svg>