<svg viewBox="0 0 40 46" fill="none" xmlns="http://www.w3.org/2000/svg"><path fill-rule="evenodd" clip-rule="evenodd" d="M25.9137 33.45C28.801 35.5926 32.2962 34.0622 33.6183 33.0521C34.9251 32.0574 35.8217 30.7183 36.5436 29.2644C37.1098 28.0962 37.5725 26.8799 37.9264 25.6297C38.2607 24.4896 38.5191 23.3341 38.7394 22.171C38.9446 21.1304 39.1042 20.0897 39.2105 19.0337L39.2713 18.7276C39.2865 18.6358 39.3625 18.5363 39.2789 18.4751C39.2029 18.4216 39.1118 18.5057 39.0358 18.5287C37.7289 18.9878 36.4296 19.4469 35.1075 19.8601C33.7938 20.2825 32.4687 20.6678 31.1337 21.0156C29.5708 21.3808 28.0992 22.0658 26.8103 23.028C25.7732 23.7762 24.9545 24.7909 24.4396 25.9664C23.961 27.1142 23.0264 31.2998 25.9137 33.45ZM15.5194 28.5375C9.77515 28.9048 7.29054 26.701 5.98366 25.293C4.7195 23.8801 3.73671 22.2357 3.08875 20.4493C2.42823 18.6838 1.957 16.8522 1.68308 14.9858C1.46478 13.7365 1.33276 12.4734 1.28798 11.2057C1.26518 10.012 1.1588 8.81067 1.1664 7.60931C1.1664 6.45387 1.27278 5.29077 1.28798 4.12767C1.31077 2.78857 1.49313 1.46478 1.59191 0.133337C1.5995 -0.0197023 1.63749 -0.0350059 1.77426 0.0568178C4.75275 1.9239 7.77683 3.72211 10.8769 5.39789C12.3433 6.20135 13.8858 6.86707 15.3142 7.74705C17.4417 9.04788 19.3185 10.6471 20.7317 12.7361C22.1066 14.642 22.771 16.9745 22.6085 19.3245C22.5097 20.5794 21.2636 28.1625 15.5194 28.5375Z" fill="#5D9037"/><path fill-rule="evenodd" clip-rule="evenodd" d="M22.6011 45.433L22.6391 43.4435V40.5204C23.2699 37.957 24.3174 35.5162 25.7392 33.297C28.9076 28.438 33.6185 24.3748 33.6185 24.3748C33.6185 24.3748 28.4745 27.359 24.8578 32.3405C23.7597 33.8675 22.8633 35.5317 22.1908 37.2913C21.7013 33.6994 20.738 30.1893 19.3263 26.854L19.2199 26.6168C14.5167 15.7969 6.72852 9.24683 6.72852 9.24683C6.72852 9.24683 13.5821 17.5186 17.6547 27.8411L17.7611 28.1242C19.3567 32.241 20.4888 36.1741 20.5344 41.4922V43.4511V45.433H22.6011Z" fill="#1F5729"/></svg>